<?xml version="1.0" encoding="utf-8"?>
<!-- Generator: Adobe Illustrator 23.0.2, SVG Export Plug-In . SVG Version: 6.00 Build 0)  -->
<svg version="1.1" xmlns="http://www.w3.org/2000/svg" xmlns:xlink="http://www.w3.org/1999/xlink" x="0px"
     y="0px" fill="#fff" viewBox="0 0 935.1 935.1" style="enable-background:new 0 0 935.1 935.1;" xml:space="preserve">
<g>
	<path d="M595.6,428.6c-39.9,0-79.7,0-119.6,0c-5.4,0-5.3,0-6.6-5c-0.4-1.4-0.4-2.7-0.4-4c0-73.6,0-147.2-0.1-220.8
		c0-2.3,0.8-4.4,0.8-6.7c0-1.5,1.3-2,2.7-2c7.9-0.1,15.7,0,23.5,1.3c2.6,0.4,3.1,1.7,3.1,3.9c0,7.4,0,14.8,0,22.1
		c0,58.5,0,117,0,175.5c0,5.6,0.1,5.7,5.7,5.7c10.8,0,21.7,0,32.5,0c2.2,0,3.2-0.5,3.5-2.9c0.3-2.1,0.6-4.2,0.6-6.4
		c0-61.8,0-123.6,0-185.4c0-4.8,0-4.8,4.6-3.7c7.4,1.7,14.6,4.1,21.7,6.8c2.5,1,3,2.8,3,5.3c-0.1,52.1,0,104.3,0,156.4
		c0,8.2,0,16.4,0,24.5c0,4.7,0.6,5.2,5.2,5.2c11.8,0,23.5-0.1,35.3,0.1c3.2,0.1,4.1-1.5,4.4-4c0.1-0.9,0-1.8,0-2.7
		c0-52.3,0-104.5,0-156.7c0-4.5,0.2-4.7,4.1-2.5c8.5,4.8,16.4,10.6,24.2,16.5c10.6,8.1,20.5,16.9,29.7,26.5
		c15,15.7,28.5,32.6,39.5,51.4c5.5,9.4,10.9,18.9,15.2,29c1.7,4.2,1.6,4.2-2.8,4.2c-7.3,0-14.5-0.1-21.8,0c-2.5,0-3.9-1-5-3.1
		c-6.7-12.9-14.3-25.2-23-36.9c-4.9-6.5-9.9-12.8-15.4-18.8c-3.7-4.1-7.3-8.3-11.7-11.6c-0.7-0.5-1.1-1.5-2.2-1.3
		c-1.4,0.3-0.5,1.5-0.8,2.2c-0.9,2.2-0.7,4.4-0.7,6.7c0,31.1,0,62.2,0,93.4c0,0.8-0.1,1.6,0,2.4c0.3,4.4,1.1,5,5.5,5
		c27.4,0,54.7,0,82.1,0.1c3.1,0,6.2,0.4,9.3,0.6c1.6,0.1,2.2,1.1,2.7,2.6c2.5,7.9,3.9,16.1,5.4,24.3c3.6,20,3.9,40.3,3.4,60.5
		c-0.2,8.7-1.3,17.3-2.5,26c-1.6,11.6-3.9,23.1-7,34.4c-3.4,12.5-7.7,24.8-12.8,36.7c-5.2,12.1-11.1,23.8-17.9,35
		c-6.7,11.1-14.4,21.6-22.5,31.8c-8.1,10.1-17.1,19.2-26.3,28.2c-9.3,9.1-19.5,17.1-30.1,24.7c-11.5,8.3-23.6,15.6-36.3,21.9
		c-20.4,10-41.5,18-63.8,22.9c-11.4,2.5-22.8,4.3-34.5,5.6c-8.9,0.9-17.7,1.2-26.6,1.3c-2.4,0-2.9-0.8-3.2-3.1
		c-1.7-15.7,0.2-31.3,0.2-47c-0.2-78.3-0.1-156.5-0.1-234.8c0-4.5,0.2-4.7,4.5-4.8c60-1.6,120.1-0.3,180.2-0.7
		c8.3-0.1,16.5-0.3,24.7,0.6c2.2,0.2,2.6,1,2.6,3c0.1,10.8-0.4,21.5-1.9,32.3c-2.3,16.1-6.6,31.7-12.4,46.9
		c-6.8,17.8-16.3,34.2-27.6,49.4c-7.5,10.1-16,19.5-25.3,28.1c-17.3,15.9-36.6,28.7-58,38.3c-3,1.3-6,2.7-9.3,3.4
		c-2,0.5-2.5,0-2.5-1.8c0-0.7,0-1.4,0-2c0-42.1,0-84.3,0-126.4c0-4.3,1.2-5,4.8-4.9c18.3,0.1,36.6,0,54.9,0c4.1,0,4.4,0.3,4.4,4.5
		c0,6.8-0.1,13.6,0.1,20.4c0.1,3.2-1,4.5-4.3,4.4c-7.8-0.2-15.7-0.1-23.5,0c-5.3,0-6.3,1-6.3,6.2c0,16.7,0,33.4,0,50.1
		c0,1-0.5,2.3,0.4,2.9c1.2,0.7,2.5,0,3.4-0.7c10.7-7.5,20.3-16.2,29-25.9c6.4-7.2,12.2-14.8,17.6-22.7c5.3-7.9,9.7-16.3,13.7-25
		c5.3-11.6,9.2-23.6,11.9-36.1c0.8-3.8,1.8-7.6,1.8-11.5c0.1-2.4-1.1-3.2-3.2-3.4c-0.6,0-1.1,0-1.7,0c-47.5,0-95,0-142.4,0
		c-4.9,0-5.5,0.6-5.5,5.6c0,73,0,146.1,0,219.1c0,5.5,0.5,6.9,6.7,5.8c9.4-1.6,18.8-3.3,28-5.6c13-3.2,25.5-7.6,37.8-12.8
		c19.2-8.2,37.1-18.8,53.7-31.3c12.5-9.4,23.9-20.1,34.3-31.7c17.5-19.4,31.7-41,42.7-64.7c8.8-19,15-38.8,18.9-59.3
		c1.9-10,2.9-20.3,3.7-30.5c0.7-9.1,0.8-18.1,0.4-27.1c-0.4-9.9-1-19.8-3.2-29.5c-0.7-3.3-2.4-4.1-5.4-4.1
		C676.7,428.6,636.1,428.6,595.6,428.6z M426,199.4c0-0.8-0.1-1.6,0-2.4c0.3-2.6-1.2-3.2-3.3-2.8c-3,0.6-6,1.4-9,2
		c-14.7,2.7-28.9,6.8-42.8,12c-14.9,5.6-29,12.7-42.8,20.6c-19.8,11.5-37.8,25.3-54.1,41.4c-10.9,10.7-21.2,22-30.3,34.4
		c-6.5,8.7-12.6,17.7-17.9,27.2c-5.5,9.7-10.7,19.5-14.7,30c-1,2.5-0.2,3.6,2.5,3.5c7.4-0.1,14.8-0.1,22.2,0
		c2.7,0.1,4.1-1.1,5.2-3.3c3-6,6.2-11.9,9.5-17.8c8.8-15.4,19.3-29.6,31.3-42.7c6.8-7.5,14-14.6,21.7-21.2
		c6.8-5.9,14-11.4,21.3-16.7c14-10,29-18.2,44.8-25.1c7.6-3.3,15.3-6.3,23.2-8.6c2.2-0.7,3.2,0.2,3.8,2c0.3,1,0.2,2.2,0.2,3.4
		c0,52.4,0,104.7,0,157.1c0,0.8,0.1,1.6,0,2.4c-0.3,2.6-1.2,4.4-4.4,4c-2.1-0.2-4.3,0.2-6.4,0.2c-10.1,0-20.2-0.1-30.4-0.1
		c-22.3,0-44.7-0.1-67,0c-29.4,0.1-58.7-0.7-88.1,0.5c-2.1,0.1-3,1.1-3.3,2.6c-1.7,7.3-3.4,14.6-4.8,22c-0.8,4.3-0.2,4.7,4.4,4.7
		c64.5,0,129,0,193.5,0c5.5,0,6.4,0.9,6.4,6.4c0,91.6,0,183.1,0,274.7c0,0.7,0,1.4,0,2c-0.2,3.4-1.5,4.4-4.8,3.4
		c-10.8-3.1-21.2-7.5-31.3-12.3c-11-5.2-21.4-11.3-31.5-18c-9.2-6.1-18-12.7-26.2-20c-7-6.3-14-12.8-20.3-19.9
		c-7-7.9-13.7-16-19.8-24.5c-12.8-18-23-37.4-30.9-58c-3.6-9.4-6.6-19-8.9-28.7c-2.2-9.5-4-19-5.3-28.7c-0.8-5.9-1.3-7.8,5.9-7.7
		c32.4,0.2,64.7,0.1,97.1,0.1c4.8,0,5.2,0.3,5.2,5.2c0,25.2,0,50.4,0,75.7c0,0.7,0,1.4,0,2c0,0.5,0.2,1.2-0.5,1.5
		c-0.7,0.3-1.3,0.1-1.8-0.5c-1.4-1.7-2.9-3.4-4.2-5.2c-8.6-11.7-15.4-24.5-20.7-38c-1.6-4.1-4.1-5.3-7.9-5.3c-6.4,0-12.9,0-19.3,0.6
		c-2.5,0.2-2.5,1.6-2,3.2c2.2,7.2,5,14.2,8.1,21c9.2,20.1,21.3,38.4,36.2,54.7c11.3,12.4,23.9,23.5,38,32.7c0.9,0.6,1.9,1.4,3.1,0.9
		c1.4-0.6,0.9-2,0.9-3c0-56.9,0-113.8,0.1-170.7c0-3.1-1.2-4.1-4.2-4.1c-53.2,0.1-106.3,0.1-159.5,0c-2.9,0-4.2,1-4,3.9
		c0.3,5.7,0.1,11.5,0.5,17.2c0.7,8.8,1.6,17.5,2.8,26.3c1.9,14.2,5.3,28,9.5,41.6c8,25.8,19.6,49.8,34.6,72.3
		c9.9,14.8,21.1,28.5,33.4,41.3c8,8.3,16.7,15.9,25.8,23.2c13.3,10.7,27.6,20,42.6,28.1c15.7,8.5,32.2,15.3,49.3,20.7
		c11.2,3.5,22.5,6.2,34,8.3c4.6,0.9,5.3,0.2,5.3-4.6c0-91.2,0-182.4,0-273.6C426,381.6,426,290.5,426,199.4z"/>
    <g>
		<path d="M165.3,232.9c4.7,3.8,9.3,7.5,14,11.3c1.7,1.4,3.3,1.1,4.6-0.5c3.2-3.9,6.5-7.7,9.5-11.7c1-1.4,2.7-2.5,2.9-4.7
			c-0.3-0.5-0.6-1.4-1.2-2c-5-4.1-9.8-8.5-15.1-12.1c-1.4-0.9-2.4-0.8-3.5,0.5c-4.2,4.7-8.1,9.6-11.8,14.6
			C163.3,230,163.7,231.6,165.3,232.9z"/>
        <path d="M772.6,245.4c1.5,5.8,5.3,8.1,10.7,9.1c1.3,0.2,2.9,0.8,3.8-0.2c0.8-1-0.6-2-1.2-2.9c-3.3-4.9-6.6-9.9-10.3-14.6
			c-1.3-1.7-2.6-4.2-5.6-3.8c-2.1-0.4-2.2,1-1.6,2.4C769.7,238.8,771.7,242,772.6,245.4z"/>
        <path d="M508.6,820.2c-3.5-2.4-7.5-1.7-11.4-1.8c-3.3,0-6.5,0.1-9.7,0.6c-2.3,0.3-3,1.2-2.8,3.2c0.4,5.8,0.9,11.6,1.4,17.4
			c0.1,1.4,1.1,2.1,2.8,2.1c5.4,0.2,10.8-0.3,16-1.6c4.7-1.2,8.2-4.1,8.9-9.5C514.2,827.2,512.1,822.6,508.6,820.2z"/>
        <path d="M144.1,259.5c3.8,3,7.5,6.4,11.5,9.2c1.3,0.9,2.2,2.7,4.3,2.4c1.1,0.2,1.9-0.3,2.5-1.2c4-4.9,8-9.9,12-14.8
			c1-1.3,1-2.8-0.3-3.8c-5-3.8-9.4-8.1-14.6-11.7c-2.3-1.6-3.6-0.9-5,0.8c-3.7,4.5-7.3,9-10.8,13.6
			C142.2,255.9,142,257.8,144.1,259.5z"/>
        <path d="M344,805.6c-5.2,4.5-9.8,9.7-13.8,15.2c-0.6,0.8-0.4,1.9,1,2.7c3.2,1.7,6.6,3,10,4.3c1.3,0.5,3,0.5,3.1-1.4
			c0.2-6.9,1.4-13.8,0.5-20.8C344.4,805.6,344.1,805.5,344,805.6z"/>
        <path d="M443.8,829.5c-0.2-0.7,0-1.8-1.1-1.7c-0.5,0-1.3,0.6-1.5,1.2c-2.6,5.6-5.2,11.2-7.5,16.9c-0.5,1.3-0.6,3.2,1.7,3.2
			c2.6-0.1,5,1.3,7.3,0.7c1.5,0,2.6,0,3.8,0c1.6,0,2.3-0.8,1.9-2.4C446.9,841.4,445.3,835.5,443.8,829.5z"/>
        <path d="M897,461.3c-0.7-1.2-0.3-2.4-0.3-3.7c0.2-9.5-0.1-19.1-0.8-28.5c-1.5-19.1-5-38-9.5-56.7c-8.8-36.5-22.2-71.3-40.1-104.3
			c-17.3-32-38.5-61.1-63.1-87.7c-14-15.1-29-29.1-45.1-41.9c-29.5-23.6-61.4-43.2-96-58.4c-25.3-11.2-51.5-19.8-78.5-25.8
			c-16.3-3.6-32.7-6.6-49.4-7.9c-10.6-0.9-21.3-1.1-31.9-1.1c-1.2,0-2.5,0.4-3.7-0.3c-6.1,0-12.3,0-18.4,0c-1.2,0.7-2.4,0.3-3.7,0.3
			c-12-0.1-24.1,0-36,1.3c-34.5,3.8-68,11.8-100.5,23.8c-32.4,12-63,27.7-91.6,47.1c-28.6,19.4-54.5,41.9-77.7,67.6
			c-19.2,21.3-36.3,44.2-51,68.9c-24.8,41.9-42.2,86.7-51.6,134.5c-3.1,15.5-5.7,31-6.2,46.8c-0.3,7.9-0.7,15.8-0.6,23.8
			c0,0.8,0.3,1.6-0.3,2.3c0,7.7,0,15.5,0,23.2c0.9,5.6,0.5,11.3,0.5,16.9c0.3,15.6,2.2,31,4.8,46.3c6.4,37.8,18.1,73.8,34.4,108.4
			c17.2,36.5,39.2,69.8,66,100c15.4,17.4,31.9,33.6,49.8,48.3c30.6,25,63.8,45.7,100.1,61.5c25.5,11.1,51.7,19.8,78.9,25.8
			c16.1,3.5,32.3,6.4,48.7,7.7c10.5,0.9,21,1.1,31.6,1c1.2,0,2.5-0.4,3.7,0.3c6.1,0,12.3,0,18.4,0c1-0.7,2.2-0.3,3.3-0.3
			c10.3,0.2,20.7,0,30.9-0.8c21.8-1.8,43.2-5.7,64.3-11.3c34.2-8.9,66.9-21.7,98-38.7c31.9-17.4,61.1-38.5,87.6-63.3
			c25.3-23.7,47.5-50,66.5-79.1c16-24.5,29.4-50.4,40.1-77.6c10.6-27,18.5-54.8,23.3-83.5c1.9-11.5,3.7-23,4.2-34.8
			c0.3-8.5,0.7-17,0.6-25.5c0-0.8-0.3-1.6,0.3-2.3C897,476.3,897,468.8,897,461.3z M738.5,226.2c2.9-4.8,2.9-4.7,6.5-0.4
			c5.5,6.5,11,13.1,17.7,18.5c0.8,0.6,1.6,1.1,2.9,1.5c-1.3-5.2-4.1-9.7-5.7-14.5c-0.1-0.3-0.5-0.5-0.5-0.9
			c-0.4-1.8-2.4-3.7-1.1-5.2c1-1.1,3.3-0.5,5.1,0.2c0.8,0.3,2.2,0.6,2.8-0.4c0.6-1-0.2-1.8-0.7-2.6c-2.5-3.6-5-7.3-7.6-10.9
			c-1.3-1.9-2.1-3.5,0.3-5.4c2.6-1.9,3.8-0.9,5.3,1.4c3,4.7,6.2,9.1,9.2,13.8c2,3.1,4.3,4.9,8.2,4.3c2.1-0.3,5,0.6,5.8-1.5
			c0.6-1.6-1.4-3.7-2.6-5.4c-2-2.8-3.9-5.6-5.8-8.4c-2.3-3.3-3.4-3.7-6.8-1.7c-3,1.8-3.9-0.5-5.2-2.2c-1.7-2.3-1.9-4.2,1.1-5.7
			c1.7-0.8,3.1-2.1,4.6-3.2c2.1-1.5,3.8-1.8,5.4,0.9c5.2,8.8,11.4,16.9,17.3,25.2c2.4,3.4,3.1,3.5,5.7,0c1.3-1.8,2.5-2.8,4.7-0.4
			c3.7,4.1,4,4.7,0.4,8.8c-2,2.3-2.2,4-0.3,6.6c5.4,7.3,10.4,15,15.8,22.3c1.3,1.8,0.9,2.8-0.5,3.9c-2.4,1.8-4.9,3.4-7.2,5.3
			c-0.9,0.7-1.3,0.3-2-0.3c-1.3-1.1-2.3-2.5-3.1-4s-0.9-2.6,0.9-3.5c2.4-1.2,3.2-2.9,1.4-5.7c-6.3-9.6-13.2-18.8-20.6-27.9
			c0,0.4,0,0.8,0,1.3c-0.1,4.9-0.1,4.9-4.9,4.5c-0.6,0-1.4-0.6-1.8,0.1c-0.6,1.2,0.3,2.2,0.8,3.1c3.2,4.7,6.5,9.3,9.8,14
			c4.6,6.5,9.3,13,14,19.4c1.4,1.8,1.1,3.1-0.6,4.4c-1.7,1.2-3.3,2-4.8-0.3c-2-3-4.3-5.9-6.1-9.1c-0.9-1.5-1.9-2.4-3.5-2.6
			c-4.5-0.7-9-1.3-13.7-2c1.8,8.4,4.5,16.1,6.3,24c0.6,2.7-0.9,3-2.2,3.3c-4.7,1.3-6.9-0.7-7.4-6.7c-0.7-7.1-2.5-13.9-4.3-20.8
			c-0.6-2.5-2-4.3-4.2-5.6c-10.9-6.7-20.1-15.3-28.7-24.6C736.8,229.2,737.6,227.7,738.5,226.2z M709.6,237.9c1.3-0.6,2.5,0.3,3.4,1
			c7.1,6.1,14.9,10.8,23.7,13.8c1.4,0.5,3,1.5,4.1,0.3c1-1.2-0.7-2.2-1.4-3.1c-4.5-6.6-9.1-13.1-13.8-19.6c-1.5-2-1.5-3.6,0.5-5.2
			c2.2-1.7,3.8-0.6,5,1.1c5.8,8.4,11.6,16.8,17.4,25.1c0.4,0.6,1,1.2,1.5,1.9c1.5,2.4,3.5,2.7,5.5,0.8c2.5-2.3,4.1-1.5,5.4,1.2
			c0.4,0.8,1,1.4,1.5,2.2c0.8,1.4,0.8,2.5-0.8,3.4c-4.2,2.3-4.5,2.9-2,6.5c5.2,7.5,10.6,14.8,15.9,22.2c1,1.4,2,2.6,3,4
			c1.5,2.1,1.5,3.8-0.9,5.5c-2.5,1.7-3.9,0.2-5-1.5c-4.5-7.2-9.4-14.2-14.5-21c-0.7-0.9-1.5-1.6-2.8-3.1c-1.3,9.1,0.5,16.9,3.3,24.5
			c1,2.7,2,5.4,3.3,8c1.2,2.5,0.2,3-2,2.8c-6.3-0.8-6.9-1.1-8.4-7.2c-1.9-7.6-3.4-15.3-2.8-23.1c0.2-3,0.8-5.9,1.3-9.1
			c-4.2,1.2-7.2,4-10.5,6.1c-2.2,1.4-4.1,3-6.1,4.7c-1.6,1.3-2.8,0.9-4.1-0.5c-3.2-3.7-3.1-4.5,0.9-7.3c4.1-2.9,8.1-5.9,12.1-8.9
			c0.8-0.6,1.8-1.1,1.4-2.4c-0.3-1.1-1.3-0.5-2-0.6c-11.7-2.4-22.3-7.5-32.3-13.8C707.4,245.4,707.8,238.7,709.6,237.9z M628.1,96
			c2.3-2.9,4.2-2.2,6.3,0.1c1.1,1.2,2.6,2.2,3,3.2c0,1.4,0,2.1-0.7,2.4c-5.6,3.1-9.8,8-14.9,11.7c-3.6,2.6-4.6-0.8-6.2-2.3
			c-1.8-1.8-0.3-2.9,1.4-4C621.3,104.1,624.8,100.2,628.1,96z M589.5,81c2.7,0,5.1,0.3,5.6,3.5c0.8,5,1.4,10.1,2.1,15.1
			c0.2,1.2-0.2,2.4-1,3c-2,1.6-4.6,1.2-6.8,0.6c-1.6-0.4-1.8-2.4-1.7-4.1c0.1-1.6,0-3.2,0-5.4c0.3-2.7-0.3-5.9-0.6-9.1
			C586.7,82.9,586.6,81,589.5,81z M581.5,106.6c4.4,1.6,9,3,13.4,4.7c2.4,0.9,3.5,0.1,4.3-2.1c3.2-9.1,6.3-18.3,9.6-27.4
			c0.4-1.3,0.7-3.2,2.7-2.9c2.5,0.4,5.1,0.8,6.7,3.2c0.2,0.3,0.1,1.2-0.2,1.6c-4.7,5.5-5,12.8-7.8,19.1c-1.4,3.1-2.2,6.4-3.2,9.7
			c-0.6,1.7-0.3,2.6,1.8,3.4c5.2,1.9,10.4,3.7,15.6,5.3c2.2,0.7,3.1,1.5,2.2,4.1c-4.4,12.6-8.6,25.2-12.9,37.8
			c-1.2,3.4-2.6,6.8-3.4,10.3c-0.9,3.9-3.5,1.7-5.2,1.4c-1.8-0.3-4.2-0.9-3.2-4.1c1.4-4.7,2.3-4.5-3.8-6.8
			c-11.3-4.1-22.6-8.2-34.2-11.4c-2.8-0.8-3.1-2.3-2.2-4.7c0.8-2.3,1.7-3.4,4.7-2.3c11.7,4.8,23.7,8.9,35.7,12.8
			c2.3,0.7,4.1,0.4,4.9-2.3c0.7-2.3,1.6-4.6,2.5-6.8c1-2.6,0-4.1-2.5-5c-7.9-2.7-15.8-5.5-23.7-8.2c-2.7-0.9-5.4-2-8.1-2.7
			c-3.3-0.9-2.5-2.8-1.9-5.1c0.7-2.7,1.8-2.7,4.1-1.9c9.4,3.5,18.8,7.1,28.3,10.2c8.8,2.9,7.3,2.4,9.7-4.6c0.5-1.4,1-2.9,1.4-4.3
			c-0.2-1.7-1.6-2.2-2.9-2.6c-7-2.5-14.1-4.9-21.1-7.4c-4.5-1.5-8.9-3.3-13.4-4.5c-2.6-0.7-2.7-1.8-1.9-4.1
			C578,106.8,578.9,105.6,581.5,106.6z M536.9,114.9c5.7-4,10.4-9,15.3-13.8c1.7-1.7,3-3.6,4.2-5.6c1.2-1.9,0.4-2.9-1.3-3.6
			c-1.2-0.5-2.5-0.9-3.8-1.2c-3.2-0.8-3.3-2.9-2.4-5.5c0.7-1.8,1.7-2.8,3.8-1.9c2,0.8,4.2,1.3,6.3,2c1.9,0.7,2.7,0.4,3.4-1.7
			c1.8-5.4,4.3-10.6,5.8-16.1c0.9-3.2,2.4-2.9,4.6-2.1c1.2,0.4,2.4,1.2,3.4,1.9c1,0.7,1.5,1.6,0.5,2.9c-3.6,4.6-4.4,10.3-6.2,15.6
			c-0.7,1.9-0.3,4.1,2.6,4.4c0.9,0.1,1.7,0.3,2.6,0.6c3.9,1.1,4.6,3.7,2.2,7.1c-1.1,1.6-2.7,0.9-3.9,0.6c-7.4-2-7.3-2-9.8,5.1
			c-1,2.8-0.8,4.3,2.7,4c2.2-0.2,2.8,1.8,3.3,3.2c0.9,2.5,1.2,5.2,2.3,7.6c1.2,2.7,0.3,4.1-2.2,4.8c-2.6,0.7-4.9-0.6-5.4-3.1
			c-0.5-2.5-1.4-4.8-3.1-7.2c-2.8,4.5-4,9.4-5.7,14.1c-3.1,8.6-6.1,17.2-8.7,26c-1.2,4-3.4,2.1-5.5,1.7c-2.6-0.5-3.8-2.1-2.7-4.6
			c5.2-12.1,8.7-24.9,13.2-37.2c0.2-0.4,0.1-0.9,0.2-2.3c-3.9,3.9-7.2,7.3-10.6,10.6c-1.5,1.4-3.1,3.6-5.1,2.8
			c-2.1-0.8-1.5-3.7-2-5.7C534.7,116.7,535.7,115.8,536.9,114.9z M311.1,86.5c10.2-2.1,20-5.4,29.9-8.2c13.8-4,27.7-8,41.5-12
			c0.8-0.2,1.5-0.3,2.3-0.4c1.7-0.4,2.6,0.6,3,2c5.9,23.3,12.8,46.4,19.7,69.5c1,3.3,1.7,6.6,2.6,9.9c0.6,2,0.3,3.5-2,4
			c-0.8,0.2-1.5,0.3-2.2,0.7c-2.5,1.4-3.8,0.3-4.4-2.1c-0.6-2.2-1.4-2.9-4-2.2c-15.8,4.1-31.3,8.9-46.9,13.3c-2.6,0.7-5.2,2-7.9,2.4
			c-3.2,0.5-3.9,2.4-3.1,4.8c1,2.8-1,3.3-2.6,3.4c-2,0.1-4.6,3-5.8-1.5c-4.4-15.8-9-31.5-13.5-47.3c-3-10.5-6-21-9.2-31.4
			C307.6,88.6,308.3,87,311.1,86.5z M132.6,255.5c5.6-6.5,11.5-12.8,16.5-19.7c1.4-2,1-3.3-0.5-4.6c-3.3-3-6.7-5.9-10.4-8.4
			c-2.3-1.5-2.7-3.2-0.4-5.1c0.5-0.4,1-1,1.5-1.4c3.2-3.2,3.3-3.2,6.5-0.1c2.7,2.6,5.4,5,8.2,7.5c1.9,1.7,3.9,1.7,5.5-0.4
			c5.3-6.7,10.6-13.4,15.8-20.3c2.9-3.9,3.5-3.9,7.1-0.7c8.7,7.7,17.4,15.3,27,21.9c0.1,0.1,0.2,0,0.3,0.1c4.2,3,3.7,8.3-1.1,10.5
			c-1.3,0.6-2-0.5-3-1c-1.7-1-2.9-0.9-4.3,0.7c-3.8,4.5-7.5,9.1-11.2,13.7c-2,2.5-1,4,0.7,5.3c6.3,5,12.6,9.9,19,14.9
			c0.2,0.1,0.4,0.2,0.6,0.3c4.3,3,4,7.3-0.7,9.7c-0.9,0.5-1.8,0.3-2.8-0.5c-4.9-4.1-9.8-8.1-14.8-12.1c-2.5-2-5-4.1-7.6-6
			c-1.3-1-2.7-1.5-4,0.3c-4,5.1-8.2,10.1-12.3,15.1c-0.5,0.6-0.3,1.3-0.4,1.9c-0.3,1.2,0.5,2,1.3,2.5c2.3,1.6,2.3,3,0.5,5.1
			c-3.9,4.5-4.3,4.5-8.8,0.3c-8.5-8.1-17.7-15.3-27.3-22.1C129.5,260.2,129.5,259.1,132.6,255.5z M147.4,703.9
			c-9.1,1.3-19-7.5-22.6-16.5c-5.9-14.5-1-25.9,11.5-34.4c7.6-5.2,15.6-9.5,25.3-9.7c12.3-0.3,22.2,8.4,26,19.1
			c2.7,7.6,1.9,14.7-2.8,21.3c-0.6,0.8-1.2,1.6-2,2.3c-1.6,1.3-3.3,3.2-5.6,2.3c-2.5-1.1-3.5-3.7-4.3-6.1c-0.5-1.5,1.3-2.6,2.4-3.7
			c3.1-2.9,5.3-6.1,5.5-10.6c0.3-5.9-4.8-12.7-11.2-14.2c-7.3-1.7-13.4,1.3-19.5,4.5c-4.2,2.2-8.1,5-11.8,8
			c-7.6,5.9-10.3,16.4-3.7,23.7c4.6,5.2,9.6,6.3,17.6,3c0.9-0.4,1.8-0.8,2.7-1.2c1.9-0.9,3.3-0.5,4.4,1.4c0.7,1.1,1.4,2.3,1.9,3.4
			c0.9,2,0.7,3.5-1.6,4.6C155.6,702.7,151.6,704.5,147.4,703.9z M188.7,760.2c-1.4,1.2-2.9,3.2-4.9,2c-2.5-1.4-3.8-4-5-6.5
			c-0.2-0.5,0.5-1.7,1.1-2.3c4.9-4.3,9.9-8.5,14.8-12.7c0.4-0.3,1-0.5,1.4-0.9c5-4.3,5-5.1,0.7-10c-3.6-4.1-7-8.4-10.5-12.6
			c-2.2-2.6-3.9-2.7-6.6-0.5c-5.5,4.6-11,9.2-16.5,13.7c-1,0.8-2,1.7-3.2,2c-1.8-0.1-6-4.3-6.3-6.3c-0.3-2,1.2-3,2.6-4.2
			c6.7-5.5,13.2-11.2,19.8-16.7c8.1-6.7,16.1-13.5,24.3-20.1c3.5-2.9,4.9,0.9,6.7,2.6c1.6,1.5,2.4,3.3,0.3,5.5
			c-4.2,4.1-8.7,7.8-13.3,11.3c-4.8,3.6-5.1,5-1.3,9.7c3.7,4.5,7.5,8.9,11.2,13.3c2.1,2.6,4.1,2.1,6.3,0.1
			c4.9-4.1,9.8-8.1,14.8-12.1c3-2.4,3.6-2.2,7.2,2.1c1.8,2.1,2.2,4-0.3,6c-8.3,7-16.5,14.1-24.8,21.1
			C201.2,750.1,195,755.2,188.7,760.2z M218.2,788c-0.5,0.5-1,1.4-2.8,0.8c-1.5-1-4.1-2-5.5-4.4c-1.1-2,0.5-3.3,1.5-4.6
			c5.3-6.8,10.7-13.5,16-20.1s10.7-13.4,16.1-20c1.3-1.7,2.7-3.4,4.2-4.8c1.2-1.2,2.5-1.8,4.4-0.6c5.7,3.5,6,5.3,1.4,11
			c-9.6,11.8-19.1,23.6-28.6,35.4C222.9,783.1,220.5,785.5,218.2,788z M287,827c-3.8,6.5-2.7,6.9-10,3.1c-3.1-1.6-4.4-3.6-4.3-7.1
			c0.4-15.1,1.1-30.1,0.7-45.2c0-1.1,0-2.2,0-3.3c-4.7,5-7.7,10.8-11,16.4c-3.9,6.5-7.6,13-11.5,19.4c-1.8,2.9-2.7,2.7-7.8,0
			c-2.7-1.4-2.8-3.1-1.5-5.5c5.9-10.2,11.8-20.4,17.7-30.7c3.1-5.4,6.2-10.9,9.3-16.3c3.8-6.7,5.9-7.1,11.9-2.2
			c1.6,1.3,2.5,2.8,2.5,5.2c-0.2,8.6,0.3,17.3-0.2,25.9c-0.4,6.8-0.5,13.6-0.5,20.4c0,1-0.5,2.3,0.7,2.7c1.1,0.3,1.5-0.9,2-1.8
			c6.5-10.9,13-21.9,19.5-32.8c2.3-3.9,3.1-4,8.3-0.9c2.5,1.5,2.8,3.6,1.1,6.5C304.9,796.3,296.1,811.7,287,827z M355.2,795.1
			c-0.2,1.8,0,3.6,0,5.4c-0.9,8.7-0.2,17.4-0.8,26.1c-0.5,6.2,0,12.4-0.6,18.6c-0.4,4.4-0.5,8.8-0.6,13.1c-0.1,2.1-0.9,3.8-3.7,2.5
			c-1.3-0.6-2.7-1-4-1.5c-2.7-0.9-3.6-2.9-3.1-5.5c0.9-4.7,0.9-9.5,1.3-14.3c0.2-2.2-1.2-3.3-2.9-4c-4.7-2-9.3-3.8-14-5.7
			c-2.1-0.8-3.8-0.7-5.4,1.1c-3.4,3.9-6.8,7.8-10.3,11.6c-1.9,2.1-8.8,0.8-10.1-1.7c-0.7-1.3,0.1-2.4,0.9-3.3
			c2.9-3.4,5.8-6.8,8.8-10.2c7.4-8.2,14.9-16.3,22.3-24.4c3.7-4.1,7.4-8.2,11-12.3c2.2-2.5,4.5-2.2,7.2-1
			C353.6,790.5,355.6,791.8,355.2,795.1z M236.6,694.4c-63.2-66.2-92.7-146.3-88.4-237.6c4-85.1,37.6-157.9,99.4-216.5
			c66.3-62.9,146.1-92.5,237.3-88.1c85.7,4.1,158.8,38.1,217.6,100.5c62.1,66,91.3,145.3,87.2,235.8
			c-3.9,85.4-37.7,158.3-99.5,217.1c-61.7,58.7-136,87.7-224.3,88.7C377.8,792.8,299.6,760.4,236.6,694.4z M461.6,879.3
			c-5.3,0-6.3-2.7-7-6.9c-0.5-3.3-1.6-6.6-2.5-9.9c-1.3-4.8-1.8-5-6.8-5.3c-4.5-0.3-9.1-0.4-13.6-1.2c-2.5-0.4-3.5,1.7-4.3,3.7
			c-1.8,4.3-3.8,8.6-5.6,13c-1.1,2.7-3.3,3.3-5.7,2.9c-6.4-1-6.5-1.1-4-6.7c6-13.1,12.1-26.2,18.2-39.3c2.3-4.9,4.4-9.9,6.8-14.7
			c1.1-2.3,2.3-4.7,6.7-4.6c3.7,0,5.2,0.9,6.5,5.5c4.3,15.6,8.4,31.3,12.6,46.9c1,3.9,2.1,7.9,3.1,11.8
			C467.1,878.7,465.9,879.3,461.6,879.3z M528.7,873.8c-1,1.9-3.7,0.9-5.6,1.3c-2.9,0.5-4.5-1.4-5.8-3.2
			c-4.8-6.4-9.5-12.8-14.3-19.3c-2.2-3-4.4-5.5-8.6-3.5c-0.2,0.1-0.5,0-0.7,0.1c-6.6,0.7-7.5,2.3-6.3,9c1,5.7,1.5,11.6,1.2,17.4
			c0,0.5-0.1,1.2-0.5,1.5c-2.4,2.6-5.6,1.2-8.3,1.1c-1.8,0-2-2.3-2.1-4.1c-0.7-8.9-1.3-17.8-2.1-26.8c-0.8-9.6-2-19.1-2.6-28.7
			c-0.4-5.2,0.2-6,5.4-6.3c7.4-0.5,14.7-1.7,22.7-1.4c5.7-0.5,11.7,0.5,16.9,4.1c8.5,5.8,9.6,20.6-0.1,27.2
			c-0.9,0.6-1.8,1.3-2.8,1.9c-4.2,2.7-4.3,3.2-1.3,7.2c4.2,5.6,8.4,11.1,12.5,16.8C527.7,869.8,529.8,871.7,528.7,873.8z M580.9,861
			c-5.4,3.8-11.2,5.9-17.6,5.8c-12.7-0.3-20.7-6.7-25.4-18.1c-2.7-6.5-3.7-13.4-4.1-20.3c-0.9-14.4,10.7-27.4,25-29.1
			c7-0.8,13.1,0.6,18.6,4.8c3.5,2.7,5.3,6.4,6.7,10.4c0.6,1.7-0.1,3.4-2.2,3.9c-1.7,0.5-3.4,1.2-5.1,1.2c-1.5,0.1-2.3-1.1-3-2.6
			c-1.3-3-2.6-6-5.4-8.2c-7.9-6.1-19.9-0.7-22.5,8.6c-0.7,2.4-0.6,4.9-0.7,7.3c0.4,8.9,2,17.5,6.2,25.5c5.3,10.2,18.6,12.9,26.1,2.2
			c2.6-3.6,2.4-8.1,1.5-12.3c-0.3-1.6-0.2-2.8,0.9-3.6c2.2-1.5,4.8-2.2,7.6-1.9c1.1,0.1,1.9,1,2.1,2
			C590.9,845,589.6,854.7,580.9,861z M656,834c-1.8,1.1-3.7,2.1-5.7,2.7c-1.8,0.5-2.4-1.2-3.1-2.5c-3.4-7-6.9-14-10.2-21.2
			c-1.2-2.6-2.9-2.8-4.9-1.9c-6.2,2.8-12.3,5.9-18.5,8.8c-2.8,1.3-2.7,3.2-1.7,5.5c2.8,6.2,5.6,12.5,8.5,18.6
			c2.3,4.9-0.4,9.4-5.8,9.1c-2.2-0.1-3-2.2-3.8-3.8c-5.1-10.9-10.2-21.8-15.2-32.7c-3-6.4-6.2-12.7-8.8-19.2
			c-0.9-2.2-0.2-3.3,1.2-4.2c1.7-1.1,3.5-2,5.4-2.5c1.2-0.3,2,0.7,2.7,1.8c3.6,5.8,5.9,12.1,8.9,18.1c1.5,3,2.9,3.6,5.9,2.4
			c6.5-2.6,12.6-5.8,18.8-8.9c1.1-0.5,1.5-1.2,1.5-1.8c-0.1-2.4-0.9-4-1.6-5.6c-2.4-5.3-4.8-10.6-7.3-15.9c-0.9-1.8-0.5-2.9,0.9-4
			c1.6-1.2,3.5-2,5.4-2.5c1.5-0.4,2.6,0.5,3.3,1.9c5.6,11,10.7,22.2,15.7,33.5c3,6.7,6.2,13.4,9.5,20
			C658.1,831.8,657.6,833.1,656,834z M683.8,815.7c-2.2,0.2-3-1.6-3.8-2.9c-5.7-8.5-11.3-17.2-16.8-25.8c-4.7-7.3-9.3-14.7-14.1-22
			c-1.6-2.5-1.7-4,1.1-5.5c1.5-0.8,2.7-2.3,4.6-2.5c2-0.3,2.9,1.3,3.8,2.5c10.2,15.6,20.4,31.2,30.5,46.8
			C691.5,810.4,688.7,815.3,683.8,815.7z M734.1,782.1c-2.4,2-4.3,2.7-7.4,1c-17.9-9.7-36-19.2-54-28.8c-4.4-2.3-4.3-2.8-0.7-6.4
			c3.7-3.7,4.8-3.7,9.2-1.2c10.8,6,21.6,11.9,32.4,17.8c2.8,1.5,5.3,3.5,9.1,4.1c-4.2-11.3-8.9-22-13.4-32.7
			c-1.8-4.4-3.5-8.8-5.4-13.2c-0.7-1.5-0.7-2.8,0.6-3.9c1.9-1.7,3.3-4.1,6.3-4c1.5,0,1.7,1.5,2.1,2.4c3.1,7,6.1,14.1,8.9,21.3
			c4.7,11.5,9.2,23.2,13.9,34.7C737.1,776.7,737.4,779.4,734.1,782.1z M797.1,709.6c-5.6,7.8-11.7,15.2-17.5,22.8
			c-2.6,3.4-5.5,6.7-8.1,10.2c-1.8,2.5-3.9,2.3-5.9,0.6c-8.6-6.7-17.2-13.5-25.8-20.2c-5.8-4.5-11.5-9.2-17.4-13.5
			c-4.8-3.5-5.2-4.8-1.7-9.4c7.5-9.7,15.1-19.3,22.7-28.9c0.9-1.1,2.1-2.3,3.7-1.6c1.4,0.6,2.9,1.5,2.7,2.9
			c-0.1,2.5-1.4,3.6-2.4,4.9c-5.2,6.8-10.4,13.6-15.6,20.4c-1.4,1.8-1.9,3.6,0.2,5.3c3.6,2.8,7.3,5.5,10.9,8.2
			c2.3,1.8,3.8,1.1,5.5-1.1c5-6.5,10.3-12.9,15.6-19.3c1.3-1.6,2.6-2.8,4.8-0.9c2.1,1.8,1.6,3.5,0.3,5.3
			c-4.7,6.1-9.3,12.2-14.1,18.2c-3.2,4-3.3,4.4,0.6,7.7c3.8,3.2,7.7,6.4,11.8,9.2c2.4,1.6,3.8,1.2,5.6-1
			c6.5-7.8,12.2-16.2,19.1-23.7c1.3-1.4,2.6-2.6,4.5-0.8C798.3,706.3,798.5,707.5,797.1,709.6z M821.6,673.9
			c-3.1,5.6-7.1,10.5-13.2,13.3c-4.8,2.2-9.7,2.2-14.5,0.2c-0.7-0.3-1.5-0.9-1.7-1.6c-0.9-2.9,1.1-5.1,2.4-7.3
			c1-1.8,2.7-1.3,4.5-0.8c5.9,1.8,11.5-0.5,15.1-5.9c1.9-2.9,3.6-5.9,4.2-9.3c0.7-4.3-0.9-7.9-4.3-10.5c-2.8-2.2-6.2-1.9-9.2-0.6
			c-5.4,2.3-9.7,6.3-14,10.2c-4.3,3.9-8.9,7.6-14.6,9.5c-7.9,2.7-15.1-4.2-16.8-10.4c-0.5-1.9-1.5-3.8-1-5c0.6-8.5,3.3-15,8.1-20.9
			c4.2-5.3,9.4-8.1,16.3-8.1c1.6,0,3.1,0.6,4.5,0.9c1.5,0.4,2.4,1.5,1.5,3.6c-2.4,5.7-2.3,5.9-8.1,5.7c-5.5-0.2-11.7,4.5-13.3,11.9
			c-1.3,5.9,0.2,9.2,5.1,11.4c2.4,1.1,4.5,0.5,6.7-0.5c5-2.5,8.6-6.7,12.8-10.2c4.2-3.5,8.5-6.8,13.6-8.8
			c9.3-3.6,17.9,2.2,20.4,10.9C828.3,659.8,825.4,667.1,821.6,673.9z"/>
        <path d="M322.5,108.8c4.5,15.4,9.1,30.8,13.4,46.2c0.6,2,1.5,2.6,3.4,2.7c4.2-1.3,8.4-2.5,12.6-3.7c14.3-4.1,28.5-8.2,42.8-12.3
			c2.7-0.8,3.8-1.7,2.9-5.2c-3.6-13.5-7.5-27-11.4-40.4c-1.7-5.9-3.4-11.8-5.2-17.7c-0.6-1.9-1.2-3-4-2.3c-9.6,2.4-19.1,5.4-28.6,8
			c-9,2.5-18,5.2-26.9,7.8c-2.5,0.7-3.4,1.7-2.5,4.5C320.4,100.4,321.3,104.6,322.5,108.8z M381.6,122c-1,2.1-2.9,3.6-4.7,4.7
			c-1.6,0-7.9-5-8.1-6.2c-0.2-1.8,1.4-2.5,2.5-3.4c1.2-1.1,2.7-2.1,4.5-0.9c1.2,0.8,2.5,1.4,3.6,2.4
			C380.4,119.5,382.3,120.4,381.6,122z M332.1,98.2c13.7-3.3,27.3-6.8,40.6-11.6c2.6-0.9,3.9,0.5,4.6,3.1c0.6,2.5-0.5,3.1-2.5,3.6
			c-4.7,1.2-9.2,2.7-13.9,3.9c-2.4,0.6-3.2,1.3-2.4,4.2c2.7,9.5,1.6,8.2,10.3,5.8c2.4-0.7,4.9-1.4,7.1-2.5c2.8-1.4,3.6,0.6,4.1,2.3
			c0.6,1.8,1.3,4-1.8,4.9c-4.3,1.1-8.4,2.7-12.7,3.7c-2.3,0.6-2.6,2.1-2.2,3.7c0.7,3.2,1.6,6.4,2.7,9.5c0.5,1.5,1.2,3.4,3.8,2.5
			c5-0.9,9.8-2.9,14.7-4.5c4.4-1.4,5.9-0.3,6.1,4.1c0.1,1.9-0.8,2.7-2.4,3.1c-14.4,3-28.3,7.7-42.3,11.8c-1,0.3-2.2,0.4-3.2,0.8
			c-2.6,1.2-3.9-0.1-4.5-2.6c-0.5-2.4-0.1-4,2.8-4.6c5-1.1,9.9-2.8,15-3.9c2.4-0.6,2.9-1.9,2.4-3.8c-1-3.7-2.3-7.4-3.3-11
			c-0.5-1.8-1.8-1.8-3.2-1.3c-3.7,1.1-7.4,2.1-11,3.5c-2.4,0.9-3.6-0.5-4-2.1c-0.4-1.7-1.7-4.3,1.8-5.1c3.4-0.8,6.8-1.7,10.2-2.7
			c2.5-0.7,4-2.2,2.8-5c-0.2-0.4-0.3-0.8-0.5-1.2c-1.9-6-1.9-6-8.1-4c-2.9,0.9-5.9,1.8-8.8,2.7c-2.9,0.9-4.3-0.8-5-3.1
			C328.6,100,329.9,98.7,332.1,98.2z"/>
	</g>
</g>
</svg>
